<svg width="800" height="800" viewBox="0 0 800 800" fill="none" xmlns="http://www.w3.org/2000/svg">
<path d="M711.5 655.875H186.5C180.698 655.875 175.134 653.57 171.032 649.468C166.93 645.366 164.625 639.802 164.625 634C164.625 628.198 166.93 622.634 171.032 618.532C175.134 614.43 180.698 612.125 186.5 612.125H711.5C717.302 612.125 722.866 614.43 726.968 618.532C731.07 622.634 733.375 628.198 733.375 634C733.375 639.802 731.07 645.366 726.968 649.468C722.866 653.57 717.302 655.875 711.5 655.875Z" fill="#6CCC93"/>
<path d="M667.75 721.5H230.25C224.448 721.5 218.884 719.195 214.782 715.093C210.68 710.991 208.375 705.427 208.375 699.625C208.375 693.823 210.68 688.259 214.782 684.157C218.884 680.055 224.448 677.75 230.25 677.75H667.75C673.552 677.75 679.116 680.055 683.218 684.157C687.32 688.259 689.625 693.823 689.625 699.625C689.625 705.427 687.32 710.991 683.218 715.093C679.116 719.195 673.552 721.5 667.75 721.5Z" fill="#6CCC93"/>
<path d="M142.75 480.875H120.875V546.5C120.875 558.103 125.484 569.231 133.689 577.436C141.894 585.641 153.022 590.25 164.625 590.25H230.25V568.375C230.225 545.176 220.998 522.935 204.594 506.531C188.19 490.127 165.949 480.9 142.75 480.875Z" fill="#6CCC93"/>
<path d="M667.75 568.375V590.25H733.375C744.978 590.25 756.106 585.641 764.311 577.436C772.516 569.231 777.125 558.103 777.125 546.5V480.875H755.25C732.051 480.9 709.81 490.127 693.406 506.531C677.002 522.935 667.775 545.176 667.75 568.375Z" fill="#6CCC93"/>
<path d="M755.25 305.875H777.125V240.25C777.125 228.647 772.516 217.519 764.311 209.314C756.106 201.109 744.978 196.5 733.375 196.5H667.75V218.375C667.775 241.574 677.002 263.815 693.406 280.219C709.81 296.623 732.051 305.85 755.25 305.875Z" fill="#6CCC93"/>
<path d="M230.25 218.375V196.5H164.625C153.022 196.5 141.894 201.109 133.689 209.314C125.484 217.519 120.875 228.647 120.875 240.25V305.875H142.75C165.949 305.85 188.19 296.623 204.594 280.219C220.998 263.815 230.225 241.574 230.25 218.375Z" fill="#6CCC93"/>
<path fill-rule="evenodd" clip-rule="evenodd" d="M536.5 393.375C536.5 441.7 497.325 480.875 449 480.875C400.675 480.875 361.5 441.7 361.5 393.375C361.5 345.05 400.675 305.875 449 305.875C497.325 305.875 536.5 345.05 536.5 393.375ZM459.043 438.846C467.411 437.289 474.215 434.07 479.3 429.24C485.251 423.587 488.269 416.48 488.267 408.117C488.267 402.144 486.71 396.891 483.644 392.511C480.581 388.123 476.683 384.965 472.059 383.121C467.496 381.305 459.874 379.224 449.447 376.943C444.928 375.936 442.157 374.952 441.206 374.024C440.298 373.139 439.819 372.01 439.819 370.758C439.819 366.334 444.468 365.407 448.367 365.407C453.208 365.407 456.937 366.842 459.449 369.675C461.969 372.515 465.921 373.614 469.543 372.48L474.537 370.917C477.701 369.927 480.135 367.379 480.98 364.173C481.825 360.968 480.965 357.552 478.7 355.13C473.79 349.877 467.325 346.531 459.043 344.949V333.642C459.043 328.317 454.726 324 449.401 324C444.075 324 439.759 328.317 439.759 333.642V344.743C430.507 346.293 423.483 349.842 418.89 355.313C414.142 360.963 411.736 367.523 411.736 374.812C411.736 381.524 413.876 387.297 418.275 392.461C422.613 397.553 432.926 401.788 448.937 405.051C452.919 405.861 455.718 406.814 457.254 407.885C458.759 408.933 459.459 410.292 459.459 412.159C459.459 413.446 459.459 417.365 449.603 417.365C443.205 417.365 438.572 415.37 435.835 411.435C433.67 408.325 429.884 406.771 426.161 407.463L418.882 408.814C415.705 409.404 413.036 411.546 411.77 414.52C410.505 417.492 410.813 420.902 412.592 423.6C418.4 432.414 427.543 437.705 439.759 439.36V454.358C439.759 459.683 444.075 464 449.401 464C454.726 464 459.043 459.683 459.043 454.358V438.846Z" fill="#6CCC93"/>
<path d="M755.25 437.125H777.125V349.625H755.25C720.453 349.585 687.092 335.744 662.486 311.139C637.881 286.533 624.04 253.172 624 218.375V196.5H274V218.375C273.96 253.172 260.119 286.533 235.514 311.139C210.908 335.744 177.547 349.585 142.75 349.625H120.875V437.125C127.711 437.125 135.012 437.125 142.75 437.125C177.547 437.165 210.908 451.006 235.514 475.611C260.119 500.217 273.96 533.578 274 568.375V590.25H624V568.375C624.04 533.578 637.881 500.217 662.486 475.611C687.092 451.006 720.453 437.165 755.25 437.125ZM449 524.625C423.041 524.625 397.665 516.927 376.081 502.505C354.497 488.083 337.675 467.585 327.741 443.602C317.807 419.619 315.208 393.229 320.272 367.769C325.336 342.309 337.837 318.923 356.192 300.567C374.548 282.212 397.934 269.711 423.394 264.647C448.854 259.583 475.244 262.182 499.227 272.116C523.21 282.05 543.708 298.872 558.13 320.456C572.552 342.04 580.25 367.416 580.25 393.375C580.21 428.172 566.369 461.533 541.764 486.139C517.158 510.744 483.797 524.585 449 524.625Z" fill="#6CCC93"/>
<g filter="url(#filter0_i_7746_307)">
<path d="M210.144 281.145C256.619 234.671 256.619 159.326 210.144 112.854C163.675 66.3821 88.3265 66.3821 41.8527 112.854C-4.61758 159.326 -4.61758 234.671 41.8527 281.145C88.3265 327.614 163.675 327.614 210.144 281.145Z" fill="#424242" stroke="url(#paint0_linear_7746_307)" stroke-opacity="0.7" stroke-width="0.7" stroke-miterlimit="10"/>
<path d="M210.144 281.145C256.619 234.671 256.619 159.326 210.144 112.854C163.675 66.3821 88.3265 66.3821 41.8527 112.854C-4.61758 159.326 -4.61758 234.671 41.8527 281.145C88.3265 327.614 163.675 327.614 210.144 281.145Z" fill="#424242" stroke="url(#paint1_linear_7746_307)" stroke-opacity="0.7" stroke-miterlimit="10"/>
<path d="M193.329 264.344C230.504 227.164 230.504 166.887 193.329 129.709C156.154 92.5318 95.8744 92.5318 58.6962 129.709C21.5179 166.887 21.5179 227.164 58.6962 264.344C95.8744 301.519 156.154 301.519 193.329 264.344Z" fill="#424242"/>
</g>
<path fill-rule="evenodd" clip-rule="evenodd" d="M126.977 268.88C89.3023 250.109 70.4404 224.315 70.3919 191.498C70.3798 185.198 70.3798 174.871 70.3919 160.516L126.977 140.057V268.88Z" fill="#00D395"/>
<path fill-rule="evenodd" clip-rule="evenodd" d="M126.977 268.88C89.3023 250.109 70.4404 224.315 70.3919 191.498C70.3798 185.198 70.3798 174.871 70.3919 160.516L126.977 140.057V268.88Z" fill="url(#paint2_linear_7746_307)" fill-opacity="0.2"/>
<path fill-rule="evenodd" clip-rule="evenodd" d="M126.961 229.316V203.776L173.476 157.029L183.038 160.516L183.043 172.955L126.961 229.316ZM126.961 252.086L182.922 195.854C181.28 226.606 162.631 250.95 126.961 268.88V252.086ZM126.961 181.007V140.057L156.855 150.967L126.961 181.003V181.007Z" fill="white" fill-opacity="0.85"/>
<defs>
<filter id="filter0_i_7746_307" x="6.5" y="77.5" width="239" height="239.996" filterUnits="userSpaceOnUse" color-interpolation-filters="sRGB">
<feFlood flood-opacity="0" result="BackgroundImageFix"/>
<feBlend mode="normal" in="SourceGraphic" in2="BackgroundImageFix" result="shape"/>
<feColorMatrix in="SourceAlpha" type="matrix" values="0 0 0 0 0 0 0 0 0 0 0 0 0 0 0 0 0 0 127 0" result="hardAlpha"/>
<feOffset dy="1"/>
<feGaussianBlur stdDeviation="4"/>
<feComposite in2="hardAlpha" operator="arithmetic" k2="-1" k3="1"/>
<feColorMatrix type="matrix" values="0 0 0 0 0 0 0 0 0 0 0 0 0 0 0 0 0 0 0.65 0"/>
<feBlend mode="normal" in2="shape" result="effect1_innerShadow_7746_307"/>
</filter>
<linearGradient id="paint0_linear_7746_307" x1="125.999" y1="78" x2="125.999" y2="315.999" gradientUnits="userSpaceOnUse">
<stop stop-color="#6B6B6F"/>
<stop offset="0.96875" stop-color="#848487" stop-opacity="0.42"/>
</linearGradient>
<linearGradient id="paint1_linear_7746_307" x1="-58.217" y1="-33.4105" x2="187.129" y2="313.136" gradientUnits="userSpaceOnUse">
<stop offset="0.0835138" stop-color="#01CC90"/>
<stop offset="0.96875" stop-color="#848487" stop-opacity="0"/>
</linearGradient>
<linearGradient id="paint2_linear_7746_307" x1="109.288" y1="157.577" x2="93.0999" y2="247.561" gradientUnits="userSpaceOnUse">
<stop/>
<stop offset="0.834177" stop-color="#5B5151"/>
</linearGradient>
</defs>
</svg>
