<svg width="800" height="800" viewBox="0 0 800 800" fill="none" xmlns="http://www.w3.org/2000/svg">
<path fill-rule="evenodd" clip-rule="evenodd" d="M150.5 307C225.335 307 286 246.335 286 171.5C286 159.853 284.53 148.548 281.767 137.763C284.145 137.699 286.546 137.667 288.968 137.667H540.368C649.568 137.667 714.668 202.767 714.368 311.967V563.367C714.368 672.567 649.268 737.667 540.068 737.667H288.968C179.768 737.667 114.668 672.567 114.668 563.067V311.967C114.668 308.691 114.727 305.455 114.843 302.259C126.204 305.35 138.16 307 150.5 307ZM345.968 621.867C357.968 620.067 374.468 611.667 383.168 602.967L517.568 469.467C511.268 467.367 504.968 464.667 498.068 461.667C491.468 458.367 484.868 455.067 478.868 451.467C473.768 448.767 468.968 445.467 464.168 441.867C460.268 439.167 455.768 435.567 451.268 431.967C450.668 431.667 449.468 430.467 447.369 428.368L447.368 428.367C439.868 422.067 431.168 413.667 423.668 404.667C423.068 404.067 421.868 402.567 420.368 400.467C417.968 397.767 414.068 392.967 410.768 387.867C408.068 384.267 404.768 379.467 401.768 374.367C398.168 368.367 394.868 361.767 391.868 355.467C388.568 348.267 386.168 341.967 383.768 335.667L249.968 469.467C240.968 478.167 232.868 494.367 231.068 506.667L220.568 580.467C218.168 596.367 222.368 610.767 232.268 620.667C240.368 628.767 251.768 632.967 264.068 632.967C266.768 632.967 269.467 632.667 272.167 632.367L272.168 632.367L345.968 621.867ZM548.168 438.267L575.768 410.367C598.568 387.567 609.668 365.967 609.968 344.367C609.968 321.567 598.868 299.667 576.068 276.867C531.368 232.167 487.868 231.267 442.268 276.867L414.368 304.767C411.968 306.867 411.068 310.467 411.968 313.767C429.368 374.667 477.968 423.267 538.868 440.667C539.468 440.967 540.668 440.967 541.568 440.967C543.968 440.967 546.368 440.067 548.168 438.267Z" fill="#6CCC93"/>
<g filter="url(#filter0_i_7746_307)">
<path d="M219.144 243.145C265.619 196.671 265.619 121.326 219.144 74.8536C172.675 28.3821 97.3265 28.3821 50.8527 74.8536C4.38242 121.326 4.38242 196.671 50.8527 243.145C97.3265 289.614 172.675 289.614 219.144 243.145Z" fill="#424242" stroke="url(#paint0_linear_7746_307)" stroke-opacity="0.7" stroke-width="0.7" stroke-miterlimit="10"/>
<path d="M219.144 243.145C265.619 196.671 265.619 121.326 219.144 74.8536C172.675 28.3821 97.3265 28.3821 50.8527 74.8536C4.38242 121.326 4.38242 196.671 50.8527 243.145C97.3265 289.614 172.675 289.614 219.144 243.145Z" fill="#424242" stroke="url(#paint1_linear_7746_307)" stroke-opacity="0.7" stroke-miterlimit="10"/>
<path d="M202.329 226.344C239.504 189.164 239.504 128.887 202.329 91.7094C165.154 54.5318 104.874 54.5318 67.6962 91.7094C30.5179 128.887 30.5179 189.164 67.6962 226.344C104.874 263.519 165.154 263.519 202.329 226.344Z" fill="#424242"/>
</g>
<path fill-rule="evenodd" clip-rule="evenodd" d="M135.977 230.88C98.3023 212.109 79.4404 186.315 79.3919 153.498C79.3798 147.198 79.3798 136.871 79.3919 122.516L135.977 102.057V230.88Z" fill="#00D395"/>
<path fill-rule="evenodd" clip-rule="evenodd" d="M135.977 230.88C98.3023 212.109 79.4404 186.315 79.3919 153.498C79.3798 147.198 79.3798 136.871 79.3919 122.516L135.977 102.057V230.88Z" fill="url(#paint2_linear_7746_307)" fill-opacity="0.2"/>
<path fill-rule="evenodd" clip-rule="evenodd" d="M135.961 191.316V165.776L182.476 119.029L192.038 122.516L192.043 134.955L135.961 191.316ZM135.961 214.086L191.922 157.854C190.28 188.606 171.631 212.95 135.961 230.88V214.086ZM135.961 143.007V102.057L165.855 112.967L135.961 143.003V143.007Z" fill="white" fill-opacity="0.85"/>
<defs>
<filter id="filter0_i_7746_307" x="15.5" y="39.5" width="239" height="239.996" filterUnits="userSpaceOnUse" color-interpolation-filters="sRGB">
<feFlood flood-opacity="0" result="BackgroundImageFix"/>
<feBlend mode="normal" in="SourceGraphic" in2="BackgroundImageFix" result="shape"/>
<feColorMatrix in="SourceAlpha" type="matrix" values="0 0 0 0 0 0 0 0 0 0 0 0 0 0 0 0 0 0 127 0" result="hardAlpha"/>
<feOffset dy="1"/>
<feGaussianBlur stdDeviation="4"/>
<feComposite in2="hardAlpha" operator="arithmetic" k2="-1" k3="1"/>
<feColorMatrix type="matrix" values="0 0 0 0 0 0 0 0 0 0 0 0 0 0 0 0 0 0 0.65 0"/>
<feBlend mode="normal" in2="shape" result="effect1_innerShadow_7746_307"/>
</filter>
<linearGradient id="paint0_linear_7746_307" x1="134.999" y1="40" x2="134.999" y2="277.999" gradientUnits="userSpaceOnUse">
<stop stop-color="#6B6B6F"/>
<stop offset="0.96875" stop-color="#848487" stop-opacity="0.42"/>
</linearGradient>
<linearGradient id="paint1_linear_7746_307" x1="-49.217" y1="-71.4105" x2="196.129" y2="275.136" gradientUnits="userSpaceOnUse">
<stop offset="0.0835138" stop-color="#01CC90"/>
<stop offset="0.96875" stop-color="#848487" stop-opacity="0"/>
</linearGradient>
<linearGradient id="paint2_linear_7746_307" x1="118.288" y1="119.577" x2="102.1" y2="209.561" gradientUnits="userSpaceOnUse">
<stop/>
<stop offset="0.834177" stop-color="#5B5151"/>
</linearGradient>
</defs>
</svg>
