<svg width="800" height="800" viewBox="0 0 800 800" fill="none" xmlns="http://www.w3.org/2000/svg">
<g filter="url(#filter0_i_7746_307)">
<path d="M210.144 265.145C256.619 218.671 256.619 143.326 210.144 96.8536C163.675 50.3821 88.3265 50.3821 41.8527 96.8536C-4.61758 143.326 -4.61758 218.671 41.8527 265.145C88.3265 311.614 163.675 311.614 210.144 265.145Z" fill="#424242" stroke="url(#paint0_linear_7746_307)" stroke-opacity="0.7" stroke-width="0.7" stroke-miterlimit="10"/>
<path d="M210.144 265.145C256.619 218.671 256.619 143.326 210.144 96.8536C163.675 50.3821 88.3265 50.3821 41.8527 96.8536C-4.61758 143.326 -4.61758 218.671 41.8527 265.145C88.3265 311.614 163.675 311.614 210.144 265.145Z" fill="#424242" stroke="url(#paint1_linear_7746_307)" stroke-opacity="0.7" stroke-miterlimit="10"/>
<path d="M193.329 248.344C230.504 211.164 230.504 150.887 193.329 113.709C156.154 76.5318 95.8744 76.5318 58.6962 113.709C21.5179 150.887 21.5179 211.164 58.6962 248.344C95.8744 285.519 156.154 285.519 193.329 248.344Z" fill="#424242"/>
</g>
<path fill-rule="evenodd" clip-rule="evenodd" d="M126.977 252.88C89.3023 234.109 70.4404 208.315 70.3919 175.498C70.3798 169.198 70.3798 158.871 70.3919 144.516L126.977 124.057V252.88Z" fill="#00D395"/>
<path fill-rule="evenodd" clip-rule="evenodd" d="M126.977 252.88C89.3023 234.109 70.4404 208.315 70.3919 175.498C70.3798 169.198 70.3798 158.871 70.3919 144.516L126.977 124.057V252.88Z" fill="url(#paint2_linear_7746_307)" fill-opacity="0.2"/>
<path fill-rule="evenodd" clip-rule="evenodd" d="M126.961 213.316V187.776L173.476 141.029L183.038 144.516L183.043 156.955L126.961 213.316ZM126.961 236.086L182.922 179.854C181.28 210.606 162.631 234.95 126.961 252.88V236.086ZM126.961 165.007V124.057L156.855 134.967L126.961 165.003V165.007Z" fill="white" fill-opacity="0.85"/>
<path fill-rule="evenodd" clip-rule="evenodd" d="M276 180.5C276 263.067 209.067 330 126.5 330C126.333 330 126.167 330 126 329.999V671.286C126 718.617 164.366 757 211.714 757H640.286C687.634 757 726 718.617 726 671.286V242.714C726 195.383 687.634 157 640.286 157H274.164C275.372 164.656 276 172.505 276 180.5ZM601.714 649.857H250.286C236.091 649.857 224.571 638.354 224.571 624.143C224.571 609.931 236.091 598.429 250.286 598.429H601.714C615.909 598.429 627.429 609.931 627.429 624.143C627.429 638.354 615.909 649.857 601.714 649.857ZM601.714 538.429H250.286C236.091 538.429 224.571 526.926 224.571 512.714C224.571 498.503 236.091 487 250.286 487H601.714C615.909 487 627.429 498.503 627.429 512.714C627.429 526.926 615.909 538.429 601.714 538.429ZM786 302.097V681.177C786 723.04 752.074 757 710.177 757H667.44C714.789 757 753.154 718.617 753.154 671.286V242.714C753.154 242.125 753.068 241.556 752.982 240.985C752.905 240.476 752.828 239.965 752.811 239.44C772.834 253.086 786 276.04 786 302.097ZM592.813 337.245C595.034 339.101 596.277 341.686 596.542 345H622.991C622.958 338.338 621.3 332.522 618.019 327.55C614.771 322.545 610.147 318.667 604.148 315.916C598.149 313.166 591.04 311.79 582.82 311.79C574.766 311.79 567.624 313.149 561.393 315.867C555.195 318.585 550.339 322.38 546.826 327.252C543.346 332.091 541.622 337.742 541.655 344.205C541.622 352.159 544.191 358.44 549.361 363.047C554.565 367.621 561.674 370.886 570.69 372.841L580.832 375.029C584.61 375.857 587.61 376.752 589.83 377.713C592.051 378.641 593.642 379.702 594.603 380.895C595.597 382.055 596.111 383.414 596.144 384.972C596.111 386.629 595.581 388.104 594.553 389.397C593.526 390.689 592.018 391.7 590.029 392.429C588.04 393.158 585.571 393.523 582.621 393.523C579.108 393.523 576.075 392.976 573.523 391.882C571.004 390.789 569.049 389.181 567.657 387.06C566.265 384.939 565.486 382.32 565.32 379.205H539.07C539.103 387.723 540.926 394.716 544.539 400.185C548.185 405.621 553.289 409.648 559.852 412.266C566.447 414.884 574.17 416.193 583.019 416.193C591.637 416.193 599.011 414.984 605.143 412.564C611.307 410.145 616.047 406.615 619.361 401.975C622.676 397.335 624.35 391.667 624.383 384.972C624.35 381.094 623.72 377.514 622.494 374.233C621.3 370.952 619.428 368.002 616.876 365.384C614.324 362.732 611.042 360.429 607.032 358.473C603.021 356.518 598.199 354.943 592.565 353.75L584.212 351.96C581.793 351.463 579.705 350.9 577.948 350.27C576.191 349.64 574.75 348.944 573.623 348.182C572.496 347.387 571.667 346.508 571.137 345.547C570.64 344.553 570.424 343.443 570.491 342.216C570.524 340.725 570.971 339.399 571.833 338.239C572.695 337.079 574.021 336.167 575.81 335.505C577.633 334.809 579.97 334.46 582.82 334.46C587.295 334.46 590.626 335.389 592.813 337.245ZM289.562 415H328.739C339.08 415 348.045 412.979 355.635 408.935C363.225 404.858 369.091 399.025 373.234 391.435C377.377 383.812 379.449 374.697 379.449 364.091C379.449 353.485 377.361 344.387 373.185 336.797C369.042 329.174 363.142 323.341 355.486 319.297C347.863 315.22 338.814 313.182 328.341 313.182H289.562V415ZM327.744 391.534H317.205V336.648H326.949C332.252 336.648 336.726 337.46 340.372 339.084C344.051 340.708 346.835 343.509 348.724 347.486C350.647 351.463 351.608 356.998 351.608 364.091C351.608 371.184 350.663 376.719 348.774 380.696C346.918 384.674 344.2 387.474 340.621 389.098C337.074 390.722 332.782 391.534 327.744 391.534ZM425.48 415V313.182H397.838V415H425.48ZM444.18 415V313.182H488.129C495.686 313.182 502.298 314.674 507.966 317.657C513.634 320.639 518.042 324.832 521.19 330.235C524.339 335.637 525.913 341.951 525.913 349.176C525.913 356.468 524.289 362.782 521.041 368.118C517.826 373.454 513.302 377.564 507.469 380.448C501.669 383.331 494.891 384.773 487.135 384.773H471.823V415H444.18ZM481.567 363.296H471.823V335.256H481.567C484.815 335.256 487.582 335.819 489.869 336.946C492.189 338.04 493.963 339.631 495.189 341.719C496.448 343.774 497.078 346.26 497.078 349.176C497.078 352.06 496.448 354.562 495.189 356.684C493.963 358.805 492.189 360.445 489.869 361.605C487.582 362.732 484.815 363.296 481.567 363.296Z" fill="#6CCC93"/>
<defs>
<filter id="filter0_i_7746_307" x="6.5" y="61.5" width="239" height="239.996" filterUnits="userSpaceOnUse" color-interpolation-filters="sRGB">
<feFlood flood-opacity="0" result="BackgroundImageFix"/>
<feBlend mode="normal" in="SourceGraphic" in2="BackgroundImageFix" result="shape"/>
<feColorMatrix in="SourceAlpha" type="matrix" values="0 0 0 0 0 0 0 0 0 0 0 0 0 0 0 0 0 0 127 0" result="hardAlpha"/>
<feOffset dy="1"/>
<feGaussianBlur stdDeviation="4"/>
<feComposite in2="hardAlpha" operator="arithmetic" k2="-1" k3="1"/>
<feColorMatrix type="matrix" values="0 0 0 0 0 0 0 0 0 0 0 0 0 0 0 0 0 0 0.65 0"/>
<feBlend mode="normal" in2="shape" result="effect1_innerShadow_7746_307"/>
</filter>
<linearGradient id="paint0_linear_7746_307" x1="125.999" y1="62" x2="125.999" y2="299.999" gradientUnits="userSpaceOnUse">
<stop stop-color="#6B6B6F"/>
<stop offset="0.96875" stop-color="#848487" stop-opacity="0.42"/>
</linearGradient>
<linearGradient id="paint1_linear_7746_307" x1="-58.217" y1="-49.4105" x2="187.129" y2="297.136" gradientUnits="userSpaceOnUse">
<stop offset="0.0835138" stop-color="#01CC90"/>
<stop offset="0.96875" stop-color="#848487" stop-opacity="0"/>
</linearGradient>
<linearGradient id="paint2_linear_7746_307" x1="109.288" y1="141.577" x2="93.0999" y2="231.561" gradientUnits="userSpaceOnUse">
<stop/>
<stop offset="0.834177" stop-color="#5B5151"/>
</linearGradient>
</defs>
</svg>
